<svg width="151.861359" height="34.200195" viewBox="0 0 151.861 34.2002" fill="none" xmlns="http://www.w3.org/2000/svg" xmlns:xlink="http://www.w3.org/1999/xlink">
	<desc>
			Created with Pixso.
	</desc>
	<defs/>
	<path id="Vector" d="M0 34.2L34.2 34.2L34.2 0L0 0L0 34.2ZM27.61 13.8L20.39 13.8L20.39 6.58L27.61 6.58L27.61 13.8ZM6.58 6.58L13.81 6.58L13.81 20.39L27.61 20.39L27.61 27.61L6.58 27.61L6.58 6.58ZM56.47 0C53.08 0 49.78 1 46.97 2.88C44.15 4.76 41.96 7.43 40.67 10.55C39.37 13.68 39.03 17.11 39.69 20.43C40.35 23.75 41.98 26.79 44.37 29.19C46.77 31.58 49.81 33.21 53.13 33.87C56.45 34.53 59.88 34.19 63.01 32.89C66.13 31.6 68.8 29.41 70.68 26.6C72.56 23.78 73.57 20.48 73.57 17.1C73.56 12.56 71.76 8.22 68.55 5.01C65.35 1.8 61 0 56.47 0ZM56.47 27.61C54.39 27.61 52.35 27 50.62 25.84C48.89 24.68 47.54 23.04 46.75 21.12C45.95 19.2 45.74 17.08 46.15 15.04C46.56 13 47.56 11.13 49.03 9.66C50.5 8.19 52.37 7.19 54.41 6.78C56.45 6.37 58.57 6.58 60.49 7.38C62.41 8.17 64.05 9.52 65.21 11.25C66.37 12.98 66.98 15.02 66.98 17.1C66.98 19.88 65.87 22.56 63.9 24.53C61.93 26.5 59.25 27.61 56.47 27.61ZM134.76 0C131.38 -0.01 128.07 1 125.26 2.88C122.45 4.76 120.25 7.43 118.96 10.55C117.66 13.67 117.33 17.11 117.99 20.43C118.64 23.75 120.27 26.79 122.66 29.19C125.06 31.58 128.1 33.21 131.42 33.87C134.74 34.53 138.17 34.19 141.3 32.89C144.42 31.6 147.1 29.41 148.97 26.6C150.85 23.78 151.86 20.48 151.86 17.1C151.85 12.56 150.05 8.22 146.84 5.01C143.64 1.8 139.29 0 134.76 0ZM134.76 27.61C132.68 27.61 130.64 27 128.91 25.84C127.18 24.68 125.84 23.04 125.04 21.12C124.24 19.2 124.04 17.08 124.44 15.04C124.85 13 125.85 11.13 127.32 9.66C128.79 8.19 130.66 7.19 132.7 6.78C134.74 6.37 136.86 6.58 138.78 7.38C140.7 8.17 142.35 9.52 143.5 11.25C144.66 12.98 145.27 15.02 145.27 17.1C145.27 19.88 144.16 22.56 142.19 24.53C140.22 26.5 137.55 27.61 134.76 27.61ZM95.61 0C92.23 0 88.92 1 86.11 2.88C83.3 4.76 81.11 7.43 79.81 10.55C78.52 13.68 78.18 17.11 78.84 20.43C79.5 23.75 81.13 26.79 83.52 29.19C85.91 31.58 88.96 33.21 92.27 33.87C95.59 34.53 99.03 34.19 102.16 32.89C105.28 31.6 107.95 29.41 109.83 26.6C111.71 23.78 112.71 20.48 112.71 17.1C112.71 12.56 110.9 8.22 107.7 5.01C104.49 1.8 100.15 0 95.61 0ZM95.61 27.61C93.67 27.61 91.77 27.08 90.12 26.07C88.47 25.06 87.12 23.61 86.24 21.88C85.36 20.16 84.97 18.22 85.12 16.29C85.27 14.36 85.95 12.5 87.08 10.93C88.22 9.36 89.77 8.14 91.55 7.39C93.34 6.64 95.3 6.4 97.22 6.7C99.13 7 100.93 7.82 102.41 9.07C103.89 10.33 104.99 11.96 105.6 13.8L95.61 13.8L95.61 20.39L105.6 20.39C104.9 22.49 103.56 24.31 101.77 25.61C99.98 26.91 97.82 27.61 95.61 27.61Z" fill="#252525" fill-opacity="1.000000" fill-rule="nonzero"/>
</svg>
