<svg width="150.138367" height="35.000000" viewBox="0 0 150.138 35" fill="none" xmlns="http://www.w3.org/2000/svg" xmlns:xlink="http://www.w3.org/1999/xlink">
	<desc>
			Created with Pixso.
	</desc>
	<defs/>
	<path id="Vector" d="M42.64 10.69L46.44 10.69L46.44 26.1L42.64 26.1L42.64 10.69ZM47.96 20.3C47.96 16.49 50.33 14.2 53.88 14.2C57.43 14.2 59.8 16.49 59.8 20.3C59.8 24.12 57.52 26.43 53.88 26.43C50.24 26.43 47.96 24.2 47.96 20.3ZM56.04 20.3C56.04 18.21 55.22 16.97 53.92 16.97C52.61 16.97 51.81 18.16 51.81 20.3C51.81 22.45 52.61 23.62 53.92 23.62C55.22 23.62 56.06 22.45 56.06 20.31L56.04 20.3ZM61.32 26.89L64.99 26.89C65.16 27.29 65.45 27.62 65.83 27.83C66.2 28.04 66.63 28.13 67.06 28.08C68.51 28.08 69.27 27.29 69.27 26.13L69.27 24L69.28 24C68.97 24.66 68.46 25.22 67.83 25.59C67.19 25.96 66.46 26.13 65.73 26.07C62.94 26.07 61.1 23.95 61.1 20.3C61.1 16.65 62.86 14.38 65.84 14.38C66.59 14.34 67.33 14.53 67.97 14.93C68.6 15.33 69.1 15.92 69.39 16.62L69.28 16.62L69.28 14.47L73.05 14.47L73.05 26.01C73.05 28.8 70.59 30.54 66.96 30.54C63.67 30.53 61.56 29.02 61.34 26.9L61.32 26.89ZM69.28 20.3C69.28 18.44 68.43 17.27 67.08 17.27C65.73 17.27 64.9 18.45 64.9 20.3C64.9 22.15 65.72 23.24 67.08 23.24C68.44 23.24 69.28 22.23 69.28 20.3ZM74.56 20.3C74.56 16.49 76.93 14.2 80.48 14.2C84.03 14.2 86.4 16.49 86.4 20.3C86.4 24.12 84.11 26.43 80.48 26.43C76.85 26.43 74.58 24.2 74.58 20.3L74.56 20.3ZM82.64 20.3C82.64 18.21 81.81 16.97 80.52 16.97C79.22 16.97 78.41 18.16 78.41 20.3C78.41 22.45 79.21 23.62 80.52 23.62C81.82 23.62 82.66 22.45 82.66 20.31L82.64 20.3ZM87.94 11.67C87.93 11.28 88.03 10.89 88.23 10.56C88.43 10.23 88.73 9.97 89.08 9.81C89.44 9.65 89.83 9.6 90.21 9.67C90.59 9.73 90.95 9.91 91.23 10.18C91.51 10.45 91.7 10.79 91.78 11.17C91.87 11.55 91.83 11.95 91.69 12.31C91.54 12.67 91.3 12.97 90.97 13.19C90.65 13.41 90.27 13.53 89.89 13.53C89.64 13.53 89.39 13.49 89.16 13.4C88.93 13.31 88.72 13.17 88.54 13C88.36 12.83 88.22 12.62 88.12 12.4C88.02 12.17 87.97 11.93 87.97 11.68L87.94 11.67ZM87.94 14.46L91.79 14.46L91.79 26.14L88 26.14L87.94 14.46ZM105.65 20.3C105.65 24.11 103.94 26.31 101.04 26.31C100.29 26.36 99.55 26.17 98.92 25.79C98.28 25.4 97.78 24.82 97.48 24.14L97.41 24.14L97.41 29.9L93.61 29.9L93.61 14.5L97.39 14.5L97.39 16.58L97.46 16.58C97.75 15.89 98.24 15.3 98.88 14.9C99.52 14.49 100.26 14.3 101.01 14.33C104 14.31 105.72 16.5 105.72 20.31L105.65 20.3ZM101.77 20.3C101.77 18.45 100.91 17.26 99.57 17.26C98.23 17.26 97.39 18.44 97.38 20.3C97.36 22.16 98.23 23.34 99.57 23.34C100.91 23.34 101.84 22.23 101.84 20.31L101.77 20.3ZM112.14 14.19C115.33 14.19 117.3 15.69 117.33 18.11L113.86 18.11C113.86 17.27 113.16 16.75 112.11 16.75C111.07 16.75 110.57 17.15 110.57 17.76C110.57 18.36 111.01 18.55 111.89 18.73L114.33 19.22C116.7 19.72 117.65 20.67 117.65 22.44C117.65 24.81 115.46 26.42 112.2 26.42C108.94 26.42 106.82 24.85 106.66 22.47L110.35 22.47C110.46 23.34 111.14 23.85 112.26 23.85C113.37 23.85 113.89 23.49 113.89 22.86C113.89 22.23 113.54 22.13 112.62 21.94L110.42 21.48C108.13 20.99 106.94 19.79 106.94 18C107.01 15.68 109 14.2 112.21 14.2L112.14 14.19ZM130.38 26.13L126.7 26.13L126.7 23.94L126.63 23.94C126.42 24.67 125.97 25.31 125.35 25.75C124.74 26.19 123.99 26.41 123.23 26.37C122.66 26.39 122.08 26.29 121.56 26.07C121.03 25.85 120.55 25.52 120.15 25.11C119.76 24.69 119.45 24.2 119.26 23.66C119.07 23.12 119 22.54 119.05 21.97L119.05 14.47L122.85 14.47L122.85 21.16C122.85 22.53 123.57 23.28 124.76 23.28C125.03 23.27 125.31 23.21 125.56 23.1C125.81 22.98 126.04 22.81 126.22 22.6C126.4 22.39 126.53 22.14 126.61 21.87C126.69 21.6 126.7 21.32 126.66 21.05L126.66 14.47L130.46 14.47L130.38 26.13ZM132.22 14.46L135.92 14.46L135.92 16.71L136 16.71C136.2 15.99 136.64 15.36 137.24 14.91C137.85 14.47 138.58 14.23 139.33 14.25C140.08 14.18 140.83 14.4 141.43 14.86C142.03 15.32 142.44 15.98 142.58 16.72L142.74 16.72C142.98 15.98 143.46 15.33 144.1 14.88C144.74 14.43 145.51 14.21 146.3 14.25C146.82 14.23 147.34 14.32 147.82 14.51C148.3 14.71 148.74 15 149.1 15.38C149.46 15.75 149.74 16.2 149.91 16.69C150.09 17.18 150.16 17.7 150.12 18.22L150.12 26.14L146.3 26.14L146.3 19.19C146.3 18 145.74 17.34 144.66 17.34C144.42 17.34 144.19 17.38 143.97 17.48C143.75 17.58 143.55 17.72 143.39 17.9C143.23 18.08 143.12 18.29 143.05 18.52C142.98 18.75 142.96 18.99 142.99 19.22L142.99 26.14L139.37 26.14L139.37 19.15C139.37 17.97 138.78 17.34 137.74 17.34C137.5 17.34 137.26 17.39 137.04 17.49C136.82 17.58 136.62 17.73 136.46 17.91C136.3 18.09 136.18 18.3 136.11 18.53C136.04 18.77 136.02 19.01 136.05 19.25L136.05 26.14L132.24 26.14L132.22 14.46Z" fill="#252525" fill-opacity="1.000000" fill-rule="nonzero"/>
	<path id="Vector" d="M35.11 11.7C35.11 9.34 34.4 7.04 33.07 5.09C31.74 3.15 29.85 1.65 27.65 0.79C25.46 -0.06 23.05 -0.23 20.75 0.3C18.46 0.83 16.38 2.05 14.78 3.79L0 3.79L0 35L31.21 35L31.21 20.41C32.44 19.31 33.42 17.97 34.09 16.47C34.76 14.97 35.11 13.35 35.11 11.7ZM29.11 11.7C29.11 12.83 28.78 13.94 28.15 14.88C27.52 15.82 26.63 16.55 25.59 16.99C24.55 17.42 23.4 17.54 22.29 17.32C21.18 17.1 20.16 16.55 19.36 15.76C18.56 14.96 18.02 13.94 17.79 12.83C17.57 11.72 17.69 10.58 18.12 9.53C18.55 8.49 19.28 7.59 20.22 6.97C21.16 6.34 22.27 6 23.4 6C24.91 6 26.36 6.6 27.43 7.67C28.5 8.74 29.1 10.19 29.11 11.7ZM25.21 28.99L6 28.99L6 9.79L11.86 9.79C11.74 10.42 11.68 11.06 11.68 11.7C11.68 14.81 12.92 17.79 15.11 19.98C17.31 22.18 20.29 23.42 23.4 23.42C24 23.42 24.61 23.36 25.21 23.27L25.21 28.99Z" fill="#252525" fill-opacity="1.000000" fill-rule="nonzero"/>
</svg>
