<svg width="84.097511" height="40.000000" viewBox="0 0 84.0975 40" fill="none" xmlns="http://www.w3.org/2000/svg" xmlns:xlink="http://www.w3.org/1999/xlink">
	<desc>
			Created with Pixso.
	</desc>
	<defs/>
	<path id="Vector" d="M0 24.01L2.51 24.01L2.51 36.36L0 36.36L0 24.01Z" fill="#252525" fill-opacity="1.000000" fill-rule="nonzero"/>
	<path id="Vector" d="M3.97 32.13C3.97 31.24 4.23 30.37 4.72 29.63C5.22 28.9 5.92 28.32 6.73 27.98C7.55 27.64 8.46 27.55 9.33 27.72C10.2 27.89 10.99 28.32 11.62 28.95C12.25 29.57 12.68 30.37 12.85 31.24C13.03 32.11 12.94 33.01 12.6 33.83C12.26 34.65 11.68 35.35 10.95 35.84C10.21 36.34 9.34 36.6 8.46 36.6C7.87 36.61 7.28 36.5 6.73 36.27C6.19 36.05 5.69 35.72 5.27 35.31C4.86 34.89 4.53 34.39 4.3 33.85C4.08 33.3 3.97 32.72 3.97 32.13ZM10.4 32.13C10.39 31.74 10.27 31.37 10.05 31.06C9.83 30.75 9.52 30.5 9.17 30.36C8.81 30.22 8.42 30.19 8.05 30.27C7.67 30.35 7.33 30.54 7.06 30.82C6.79 31.09 6.61 31.44 6.54 31.82C6.47 32.19 6.51 32.58 6.66 32.93C6.81 33.29 7.06 33.59 7.38 33.8C7.7 34.01 8.07 34.12 8.46 34.12C8.72 34.13 8.98 34.08 9.22 33.99C9.46 33.89 9.68 33.74 9.87 33.55C10.05 33.36 10.19 33.14 10.28 32.9C10.38 32.65 10.42 32.39 10.4 32.13Z" fill="#252525" fill-opacity="1.000000" fill-rule="nonzero"/>
	<path id="Vector" d="M23.06 27.9L23.06 35.94C23.06 38.78 20.84 39.98 18.59 39.98C17.8 40.04 17 39.88 16.3 39.52C15.59 39.16 15 38.61 14.58 37.94L16.75 36.68C16.92 37.03 17.19 37.32 17.53 37.51C17.87 37.7 18.25 37.78 18.64 37.75C18.89 37.79 19.15 37.78 19.4 37.7C19.64 37.63 19.87 37.5 20.06 37.32C20.25 37.15 20.39 36.93 20.48 36.69C20.57 36.45 20.61 36.19 20.58 35.94L20.58 35.16C20.29 35.52 19.91 35.81 19.48 36C19.05 36.19 18.59 36.28 18.12 36.26C16.98 36.26 15.88 35.8 15.08 35C14.27 34.19 13.82 33.1 13.82 31.96C13.82 30.82 14.27 29.73 15.08 28.92C15.88 28.11 16.98 27.66 18.12 27.66C18.59 27.64 19.05 27.73 19.48 27.92C19.91 28.11 20.29 28.4 20.58 28.76L20.58 27.92L23.06 27.9ZM20.58 31.96C20.6 31.55 20.5 31.15 20.28 30.8C20.07 30.45 19.75 30.18 19.38 30.01C19.01 29.84 18.59 29.79 18.19 29.86C17.79 29.93 17.42 30.11 17.12 30.4C16.83 30.68 16.62 31.04 16.54 31.44C16.45 31.84 16.49 32.26 16.64 32.64C16.79 33.02 17.05 33.34 17.39 33.57C17.73 33.8 18.13 33.92 18.54 33.92C18.8 33.94 19.07 33.91 19.32 33.81C19.57 33.72 19.8 33.58 20 33.4C20.19 33.21 20.34 32.99 20.44 32.74C20.54 32.49 20.59 32.23 20.58 31.96Z" fill="#252525" fill-opacity="1.000000" fill-rule="nonzero"/>
	<path id="Vector" d="M24.51 32.13C24.51 31.24 24.77 30.37 25.26 29.63C25.76 28.9 26.46 28.32 27.27 27.98C28.09 27.64 28.99 27.55 29.86 27.72C30.73 27.89 31.53 28.32 32.16 28.95C32.79 29.57 33.22 30.37 33.39 31.24C33.56 32.11 33.48 33.01 33.14 33.83C32.8 34.65 32.22 35.35 31.49 35.84C30.75 36.34 29.88 36.6 29 36.6C28.41 36.61 27.82 36.5 27.27 36.27C26.73 36.05 26.23 35.72 25.81 35.31C25.4 34.89 25.07 34.39 24.84 33.85C24.62 33.3 24.51 32.72 24.51 32.13ZM30.94 32.13C30.93 31.74 30.81 31.37 30.59 31.06C30.37 30.75 30.06 30.5 29.71 30.36C29.35 30.22 28.96 30.19 28.59 30.27C28.21 30.35 27.87 30.54 27.6 30.82C27.33 31.09 27.15 31.44 27.08 31.82C27.01 32.19 27.05 32.58 27.2 32.93C27.35 33.29 27.6 33.59 27.92 33.8C28.24 34.01 28.61 34.12 29 34.12C29.26 34.13 29.52 34.08 29.76 33.98C30 33.88 30.21 33.73 30.4 33.55C30.58 33.36 30.72 33.14 30.81 32.89C30.9 32.65 30.94 32.39 30.93 32.13L30.94 32.13Z" fill="#252525" fill-opacity="1.000000" fill-rule="nonzero"/>
	<path id="Vector" d="M34.64 25.63C34.64 25.33 34.73 25.03 34.9 24.78C35.07 24.53 35.31 24.33 35.59 24.22C35.87 24.1 36.17 24.07 36.47 24.13C36.77 24.19 37.04 24.34 37.25 24.55C37.47 24.76 37.61 25.04 37.67 25.33C37.73 25.63 37.7 25.94 37.58 26.21C37.47 26.49 37.27 26.73 37.02 26.9C36.77 27.07 36.47 27.16 36.17 27.16C35.77 27.16 35.38 26.99 35.09 26.71C34.81 26.42 34.65 26.04 34.64 25.63ZM34.9 27.9L37.42 27.9L37.42 36.36L34.9 36.36L34.9 27.9Z" fill="#252525" fill-opacity="1.000000" fill-rule="nonzero"/>
	<path id="Vector" d="M48.4 32.13C48.43 32.69 48.35 33.25 48.17 33.77C47.98 34.3 47.69 34.79 47.31 35.2C46.94 35.62 46.49 35.96 45.98 36.2C45.47 36.44 44.92 36.57 44.36 36.6C43.89 36.62 43.43 36.54 42.99 36.36C42.56 36.19 42.17 35.91 41.85 35.57L41.85 39.76L39.33 39.76L39.33 27.9L41.85 27.9L41.85 28.69C42.17 28.35 42.56 28.08 42.99 27.9C43.43 27.72 43.89 27.64 44.36 27.66C44.92 27.69 45.47 27.83 45.98 28.06C46.48 28.3 46.94 28.64 47.31 29.05C47.69 29.47 47.98 29.96 48.16 30.48C48.35 31.01 48.43 31.57 48.4 32.13ZM45.88 32.13C45.87 31.73 45.75 31.35 45.52 31.03C45.3 30.7 44.98 30.45 44.62 30.31C44.25 30.16 43.85 30.12 43.46 30.2C43.08 30.28 42.72 30.47 42.45 30.75C42.17 31.03 41.98 31.39 41.9 31.77C41.82 32.16 41.85 32.56 42 32.92C42.15 33.29 42.4 33.61 42.72 33.83C43.04 34.06 43.42 34.18 43.82 34.19C44.09 34.21 44.37 34.17 44.63 34.07C44.88 33.97 45.12 33.82 45.31 33.62C45.51 33.43 45.66 33.19 45.75 32.94C45.85 32.68 45.89 32.4 45.87 32.13L45.88 32.13Z" fill="#252525" fill-opacity="1.000000" fill-rule="nonzero"/>
	<path id="Vector" d="M56.24 33.82C56.24 35.77 54.56 36.6 52.72 36.6C51.98 36.67 51.24 36.51 50.59 36.15C49.94 35.79 49.42 35.25 49.08 34.59L51.28 33.34C51.37 33.64 51.56 33.91 51.82 34.09C52.08 34.27 52.4 34.36 52.72 34.33C53.33 34.33 53.63 34.14 53.63 33.81C53.63 32.87 49.43 33.37 49.43 30.45C49.43 28.6 51 27.67 52.79 27.67C53.46 27.65 54.11 27.81 54.69 28.13C55.27 28.44 55.76 28.91 56.1 29.48L53.89 30.64C53.79 30.42 53.63 30.23 53.43 30.1C53.23 29.97 52.99 29.89 52.75 29.89C52.31 29.89 52.05 30.06 52.05 30.37C52.08 31.34 56.24 30.69 56.24 33.82Z" fill="#252525" fill-opacity="1.000000" fill-rule="nonzero"/>
	<path id="Vector" d="M65.51 27.9L65.51 36.36L62.99 36.36L62.99 35.57C62.7 35.92 62.33 36.2 61.91 36.37C61.49 36.55 61.03 36.63 60.57 36.6C58.89 36.6 57.41 35.38 57.41 33.09L57.41 27.9L59.93 27.9L59.93 32.72C59.9 32.93 59.93 33.14 60 33.33C60.06 33.53 60.18 33.71 60.32 33.85C60.47 34 60.64 34.11 60.84 34.18C61.03 34.25 61.24 34.28 61.45 34.26C62.37 34.26 63.02 33.72 63.02 32.52L63.02 27.9L65.51 27.9Z" fill="#252525" fill-opacity="1.000000" fill-rule="nonzero"/>
	<path id="Vector" d="M80.06 31.17L80.06 36.36L77.55 36.36L77.55 31.39C77.55 30.55 77.13 30 76.33 30C75.52 30 75 30.59 75 31.59L75 36.36L72.48 36.36L72.48 31.39C72.48 30.55 72.08 30 71.27 30C70.45 30 69.95 30.59 69.95 31.59L69.95 36.36L67.43 36.36L67.43 27.9L69.95 27.9L69.95 28.68C70.21 28.33 70.56 28.06 70.95 27.88C71.35 27.7 71.78 27.63 72.22 27.66C72.65 27.64 73.08 27.73 73.47 27.93C73.86 28.12 74.19 28.42 74.43 28.78C74.71 28.4 75.08 28.1 75.51 27.9C75.94 27.71 76.41 27.62 76.88 27.66C78.8 27.66 80.06 29.05 80.06 31.17Z" fill="#252525" fill-opacity="1.000000" fill-rule="nonzero"/>
	<path id="Vector" d="M82.21 27.85C83.25 27.85 84.09 27 84.09 25.97C84.09 24.93 83.25 24.09 82.21 24.09C81.17 24.09 80.33 24.93 80.33 25.97C80.33 27 81.17 27.85 82.21 27.85Z" fill="#252525" fill-opacity="1.000000" fill-rule="nonzero"/>
	<path id="Vector" d="M28.49 17.61C33.35 17.61 37.3 13.66 37.3 8.8C37.3 3.94 33.35 0 28.49 0C23.63 0 19.69 3.94 19.69 8.8C19.69 13.66 23.63 17.61 28.49 17.61Z" fill="#252525" fill-opacity="1.000000" fill-rule="nonzero"/>
	<path id="Vector" d="M48.18 17.61C53.04 17.61 56.98 13.66 56.98 8.8C56.98 3.94 53.04 0 48.18 0C43.31 0 39.37 3.94 39.37 8.8C39.37 13.66 43.31 17.61 48.18 17.61Z" fill="#252525" fill-opacity="1.000000" fill-rule="nonzero"/>
	<path id="Vector" d="M17.61 0L0.01 0L0.01 17.6L17.61 17.6L17.61 0Z" fill="#252525" fill-opacity="1.000000" fill-rule="nonzero"/>
</svg>
