<svg width="180.861191" height="35.554688" viewBox="0 0 180.861 35.5547" fill="none" xmlns="http://www.w3.org/2000/svg" xmlns:xlink="http://www.w3.org/1999/xlink">
	<desc>
			Created with Pixso.
	</desc>
	<defs/>
	<path id="Vector" d="M27.13 15.6C26.62 16.11 26.23 16.72 25.99 17.4C25.75 18.07 25.66 18.79 25.73 19.5L25.71 19.48C25.78 20.32 25.67 21.16 25.38 21.96C25.09 22.75 24.63 23.47 24.03 24.06C23.44 24.66 22.72 25.12 21.93 25.41C21.13 25.7 20.29 25.81 19.45 25.74L19.47 25.76C18.47 25.67 17.46 25.89 16.58 26.39C15.71 26.89 15.01 27.65 14.58 28.56C14.15 29.48 14.01 30.5 14.19 31.49C14.36 32.49 14.84 33.4 15.55 34.12C16.27 34.83 17.18 35.3 18.18 35.48C19.17 35.65 20.19 35.51 21.11 35.08C22.02 34.65 22.78 33.95 23.28 33.08C23.78 32.2 24 31.19 23.9 30.19L23.93 30.21C23.86 29.37 23.97 28.53 24.26 27.73C24.55 26.94 25.01 26.22 25.6 25.63C26.2 25.03 26.92 24.57 27.71 24.28C28.5 23.99 29.35 23.88 30.19 23.95L30.16 23.93C30.98 24 31.81 23.87 32.56 23.54C33.32 23.21 33.98 22.69 34.48 22.04C34.98 21.39 35.31 20.62 35.44 19.8C35.56 18.99 35.48 18.15 35.2 17.38C34.92 16.61 34.44 15.92 33.82 15.37C33.21 14.83 32.46 14.45 31.65 14.27C30.85 14.1 30.01 14.12 29.22 14.36C28.43 14.59 27.71 15.02 27.13 15.6L27.13 15.6Z" fill="#252525" fill-opacity="1.000000" fill-rule="nonzero"/>
	<path id="Vector" d="M17.29 22.62L17.27 22.59C17.98 22.67 18.7 22.58 19.38 22.34C20.05 22.1 20.67 21.71 21.17 21.2C21.68 20.7 22.07 20.08 22.31 19.41C22.55 18.73 22.64 18.01 22.57 17.3L22.59 17.32C22.52 16.48 22.64 15.64 22.93 14.84C23.21 14.05 23.67 13.33 24.27 12.74C24.87 12.14 25.58 11.68 26.38 11.39C27.17 11.1 28.01 10.99 28.85 11.06L28.83 11.04C29.83 11.13 30.84 10.91 31.72 10.41C32.59 9.91 33.29 9.15 33.72 8.24C34.15 7.33 34.29 6.31 34.12 5.31C33.94 4.32 33.47 3.4 32.75 2.69C32.04 1.97 31.12 1.5 30.13 1.32C29.14 1.15 28.11 1.29 27.2 1.72C26.29 2.15 25.53 2.85 25.03 3.72C24.53 4.6 24.31 5.61 24.4 6.61L24.38 6.59C24.45 7.43 24.34 8.27 24.05 9.06C23.76 9.86 23.3 10.58 22.7 11.17C22.11 11.77 21.39 12.23 20.6 12.52C19.81 12.8 18.96 12.92 18.12 12.85L18.14 12.87C17.43 12.8 16.71 12.89 16.03 13.13C15.36 13.37 14.74 13.76 14.24 14.26C13.73 14.77 13.34 15.39 13.1 16.06C12.86 16.74 12.77 17.46 12.84 18.17L12.82 18.15C12.89 18.99 12.77 19.83 12.49 20.62C12.2 21.41 11.74 22.13 11.14 22.73C10.55 23.33 9.83 23.78 9.04 24.07C8.24 24.36 7.4 24.48 6.56 24.41L6.58 24.43C5.58 24.33 4.57 24.55 3.69 25.05C2.82 25.55 2.12 26.31 1.69 27.23C1.26 28.14 1.12 29.16 1.29 30.16C1.47 31.15 1.94 32.07 2.66 32.78C3.37 33.49 4.29 33.97 5.28 34.14C6.27 34.32 7.3 34.18 8.21 33.75C9.12 33.32 9.88 32.62 10.38 31.74C10.88 30.87 11.1 29.86 11.01 28.85L11.03 28.88C10.96 28.04 11.07 27.19 11.36 26.4C11.65 25.61 12.11 24.89 12.71 24.29C13.3 23.7 14.02 23.24 14.81 22.95C15.61 22.66 16.45 22.55 17.29 22.62Z" fill="#252525" fill-opacity="1.000000" fill-rule="nonzero"/>
	<path id="Vector" d="M8.35 19.94C8.86 19.43 9.25 18.82 9.49 18.15C9.73 17.47 9.82 16.75 9.75 16.04L9.77 16.06C9.7 15.22 9.82 14.38 10.11 13.58C10.4 12.79 10.85 12.07 11.45 11.48C12.05 10.88 12.77 10.42 13.56 10.13C14.35 9.84 15.19 9.73 16.03 9.8L16.01 9.78C17.01 9.87 18.02 9.66 18.9 9.15C19.77 8.65 20.47 7.9 20.9 6.98C21.33 6.07 21.47 5.05 21.3 4.05C21.12 3.06 20.65 2.14 19.93 1.43C19.22 0.72 18.3 0.24 17.31 0.07C16.32 -0.11 15.29 0.03 14.38 0.46C13.47 0.89 12.71 1.59 12.21 2.47C11.71 3.34 11.49 4.35 11.59 5.35L11.56 5.33C11.63 6.17 11.52 7.02 11.23 7.81C10.94 8.6 10.48 9.32 9.89 9.91C9.29 10.51 8.57 10.97 7.78 11.26C6.99 11.55 6.14 11.66 5.3 11.59L5.33 11.61C4.51 11.54 3.68 11.67 2.93 12.01C2.17 12.34 1.51 12.85 1.01 13.5C0.51 14.16 0.18 14.93 0.05 15.74C-0.07 16.56 0.01 17.39 0.29 18.16C0.57 18.94 1.04 19.63 1.66 20.17C2.28 20.71 3.03 21.09 3.83 21.27C4.64 21.45 5.48 21.42 6.27 21.19C7.06 20.95 7.78 20.53 8.36 19.94L8.35 19.94Z" fill="#252525" fill-opacity="1.000000" fill-rule="nonzero"/>
	<path id="Vector" d="M49.66 6.64L53.62 6.64L53.62 25.91L49.66 25.91L49.66 6.64Z" fill="#252525" fill-opacity="1.000000" fill-rule="nonzero"/>
	<path id="Vector" d="M55.86 19.32C55.85 17.93 56.26 16.58 57.03 15.42C57.79 14.27 58.88 13.37 60.16 12.83C61.44 12.3 62.84 12.16 64.2 12.42C65.56 12.69 66.81 13.35 67.79 14.33C68.77 15.31 69.44 16.55 69.72 17.91C69.99 19.27 69.85 20.68 69.32 21.96C68.79 23.24 67.9 24.33 66.75 25.1C65.59 25.87 64.24 26.28 62.86 26.28C61.94 26.29 61.02 26.12 60.17 25.78C59.32 25.43 58.55 24.92 57.9 24.27C57.24 23.62 56.73 22.85 56.38 22C56.03 21.15 55.85 20.24 55.86 19.32ZM65.89 19.32C65.88 18.72 65.68 18.14 65.34 17.65C65 17.16 64.52 16.79 63.96 16.57C63.4 16.35 62.8 16.31 62.21 16.43C61.63 16.56 61.1 16.85 60.68 17.28C60.26 17.71 59.98 18.25 59.87 18.84C59.76 19.43 59.83 20.03 60.06 20.58C60.29 21.13 60.68 21.6 61.18 21.93C61.68 22.26 62.26 22.44 62.86 22.44C63.27 22.45 63.67 22.37 64.05 22.22C64.43 22.07 64.77 21.83 65.06 21.54C65.34 21.25 65.56 20.9 65.71 20.52C65.85 20.13 65.91 19.72 65.89 19.32Z" fill="#252525" fill-opacity="1.000000" fill-rule="nonzero"/>
	<path id="Vector" d="M85.63 12.72L85.63 25.25C85.63 29.68 82.18 31.56 78.67 31.56C77.43 31.65 76.19 31.4 75.09 30.84C73.98 30.27 73.06 29.42 72.41 28.36L75.79 26.41C76.06 26.96 76.5 27.41 77.03 27.71C77.57 28 78.19 28.13 78.8 28.07C79.19 28.12 79.59 28.09 79.96 27.97C80.34 27.85 80.68 27.64 80.97 27.37C81.25 27.1 81.48 26.77 81.62 26.4C81.76 26.03 81.81 25.64 81.78 25.24L81.78 24.04C81.32 24.6 80.73 25.06 80.06 25.35C79.39 25.65 78.66 25.79 77.93 25.75C76.18 25.7 74.53 24.97 73.32 23.72C72.11 22.47 71.43 20.79 71.43 19.05C71.43 17.31 72.11 15.63 73.32 14.38C74.53 13.13 76.18 12.4 77.93 12.34C78.66 12.31 79.39 12.45 80.06 12.74C80.73 13.04 81.32 13.49 81.78 14.06L81.78 12.71L85.63 12.72ZM81.78 19.05C81.81 18.41 81.64 17.78 81.31 17.24C80.97 16.69 80.48 16.26 79.9 16C79.32 15.74 78.67 15.66 78.04 15.76C77.41 15.87 76.83 16.17 76.37 16.61C75.91 17.05 75.59 17.62 75.46 18.25C75.32 18.87 75.38 19.52 75.62 20.11C75.86 20.71 76.27 21.21 76.8 21.57C77.33 21.93 77.95 22.12 78.59 22.12C79 22.15 79.42 22.09 79.81 21.95C80.21 21.8 80.56 21.58 80.86 21.29C81.17 21 81.4 20.65 81.56 20.27C81.72 19.88 81.79 19.47 81.78 19.05Z" fill="#252525" fill-opacity="1.000000" fill-rule="nonzero"/>
	<path id="Vector" d="M87.88 19.32C87.87 17.93 88.28 16.58 89.04 15.42C89.81 14.27 90.9 13.37 92.18 12.83C93.45 12.3 94.86 12.16 96.22 12.42C97.58 12.69 98.83 13.35 99.81 14.33C100.79 15.31 101.46 16.55 101.73 17.91C102.01 19.27 101.87 20.68 101.34 21.96C100.81 23.24 99.91 24.33 98.76 25.1C97.61 25.87 96.26 26.28 94.87 26.28C93.95 26.29 93.04 26.12 92.19 25.78C91.34 25.43 90.56 24.92 89.91 24.27C89.26 23.62 88.75 22.85 88.4 22C88.05 21.15 87.87 20.24 87.88 19.32ZM97.91 19.32C97.89 18.72 97.7 18.14 97.36 17.65C97.01 17.16 96.53 16.79 95.98 16.57C95.42 16.35 94.81 16.31 94.23 16.43C93.65 16.56 93.11 16.85 92.7 17.28C92.28 17.71 92 18.25 91.89 18.84C91.78 19.43 91.84 20.03 92.08 20.58C92.31 21.13 92.7 21.6 93.19 21.93C93.69 22.26 94.28 22.44 94.87 22.44C95.28 22.45 95.69 22.37 96.07 22.22C96.45 22.07 96.79 21.83 97.08 21.54C97.36 21.25 97.58 20.9 97.73 20.52C97.87 20.13 97.93 19.72 97.91 19.32Z" fill="#252525" fill-opacity="1.000000" fill-rule="nonzero"/>
	<path id="Vector" d="M103.72 9.18C103.72 8.71 103.86 8.25 104.12 7.86C104.38 7.47 104.75 7.16 105.18 6.98C105.62 6.8 106.1 6.76 106.56 6.85C107.02 6.94 107.44 7.17 107.77 7.5C108.11 7.83 108.33 8.25 108.42 8.72C108.51 9.18 108.47 9.65 108.29 10.09C108.11 10.52 107.8 10.89 107.41 11.15C107.02 11.42 106.56 11.55 106.09 11.55C105.46 11.55 104.86 11.3 104.42 10.85C103.98 10.41 103.72 9.81 103.72 9.18ZM104.12 12.72L108.08 12.72L108.08 25.92L104.11 25.92L104.12 12.72Z" fill="#252525" fill-opacity="1.000000" fill-rule="nonzero"/>
	<path id="Vector" d="M125.18 19.32C125.22 20.19 125.1 21.06 124.8 21.88C124.51 22.71 124.06 23.46 123.47 24.11C122.88 24.76 122.18 25.28 121.39 25.66C120.6 26.03 119.74 26.24 118.87 26.28C118.13 26.32 117.4 26.2 116.72 25.92C116.04 25.64 115.43 25.22 114.94 24.67L114.94 31.19L110.98 31.19L110.98 12.72L114.94 12.72L114.94 13.96C115.43 13.41 116.04 12.99 116.72 12.71C117.4 12.43 118.13 12.31 118.87 12.35C119.74 12.39 120.6 12.6 121.39 12.97C122.18 13.35 122.89 13.87 123.47 14.52C124.06 15.17 124.51 15.92 124.8 16.75C125.1 17.57 125.22 18.44 125.18 19.32ZM121.22 19.32C121.2 18.7 121 18.1 120.65 17.59C120.29 17.09 119.8 16.7 119.22 16.47C118.65 16.24 118.02 16.19 117.42 16.32C116.81 16.45 116.26 16.76 115.83 17.2C115.4 17.64 115.1 18.2 114.99 18.81C114.87 19.42 114.94 20.05 115.18 20.62C115.42 21.18 115.82 21.67 116.34 22.01C116.85 22.35 117.46 22.54 118.08 22.54C118.5 22.56 118.92 22.48 119.32 22.33C119.71 22.17 120.07 21.93 120.37 21.63C120.66 21.33 120.89 20.96 121.04 20.56C121.19 20.16 121.25 19.74 121.22 19.32Z" fill="#252525" fill-opacity="1.000000" fill-rule="nonzero"/>
	<path id="Vector" d="M137.4 21.95C137.4 24.99 134.76 26.28 131.91 26.28C130.75 26.39 129.6 26.14 128.59 25.58C127.58 25.02 126.75 24.17 126.23 23.14L129.66 21.19C129.8 21.67 130.1 22.08 130.51 22.36C130.91 22.65 131.41 22.78 131.9 22.75C132.85 22.75 133.33 22.46 133.33 21.93C133.33 20.48 126.83 21.24 126.83 16.68C126.83 13.8 129.26 12.35 132.01 12.35C133.04 12.31 134.06 12.56 134.97 13.06C135.87 13.55 136.63 14.28 137.15 15.17L133.78 16.99C133.63 16.65 133.38 16.35 133.07 16.14C132.75 15.94 132.38 15.83 132.01 15.83C131.32 15.83 130.9 16.1 130.9 16.57C130.9 18.07 137.4 17.07 137.4 21.95Z" fill="#252525" fill-opacity="1.000000" fill-rule="nonzero"/>
	<path id="Vector" d="M151.86 12.72L151.86 25.92L147.9 25.92L147.9 24.67C147.44 25.22 146.86 25.65 146.21 25.93C145.55 26.21 144.84 26.33 144.13 26.29C141.46 26.29 139.2 24.39 139.2 20.82L139.2 12.72L143.16 12.72L143.16 20.24C143.12 20.55 143.16 20.87 143.26 21.17C143.36 21.47 143.53 21.74 143.75 21.97C143.97 22.2 144.23 22.38 144.53 22.49C144.82 22.61 145.14 22.66 145.45 22.64C146.9 22.64 147.91 21.79 147.91 19.92L147.91 12.72L151.86 12.72Z" fill="#252525" fill-opacity="1.000000" fill-rule="nonzero"/>
	<path id="Vector" d="M174.57 17.81L174.57 25.91L170.61 25.91L170.61 18.15C170.61 16.83 169.98 15.99 168.71 15.99C167.39 15.99 166.65 16.91 166.65 18.47L166.65 25.91L162.69 25.91L162.69 18.15C162.69 16.83 162.06 15.99 160.79 15.99C159.47 15.99 158.73 16.91 158.73 18.47L158.73 25.91L154.77 25.91L154.77 12.71L158.73 12.71L158.73 13.93C159.14 13.39 159.68 12.96 160.3 12.69C160.92 12.41 161.59 12.29 162.27 12.35C162.94 12.31 163.62 12.46 164.23 12.76C164.83 13.07 165.35 13.52 165.72 14.09C166.16 13.5 166.74 13.03 167.41 12.72C168.08 12.42 168.82 12.29 169.55 12.35C172.58 12.35 174.57 14.51 174.57 17.81Z" fill="#252525" fill-opacity="1.000000" fill-rule="nonzero"/>
	<path id="Vector" d="M177.92 12.63C179.54 12.63 180.86 11.32 180.86 9.7C180.86 8.07 179.54 6.76 177.92 6.76C176.3 6.76 174.98 8.07 174.98 9.7C174.98 11.32 176.3 12.63 177.92 12.63Z" fill="#252525" fill-opacity="1.000000" fill-rule="nonzero"/>
</svg>
