<svg width="174.413162" height="35.000000" viewBox="0 0 174.413 35" fill="none" xmlns="http://www.w3.org/2000/svg" xmlns:xlink="http://www.w3.org/1999/xlink">
	<desc>
			Created with Pixso.
	</desc>
	<defs/>
	<path id="Vector" d="M56.06 28.46C55.18 28.51 54.31 28.26 53.59 27.75C53.29 27.52 53.04 27.23 52.88 26.89C52.72 26.55 52.64 26.18 52.66 25.81L52.66 12.07C52.65 12.01 52.65 11.95 52.67 11.89C52.69 11.84 52.72 11.79 52.77 11.75C52.81 11.71 52.86 11.67 52.91 11.66C52.97 11.64 53.03 11.63 53.08 11.64L55.57 11.64C55.86 11.64 55.99 11.79 55.99 12.07L55.99 24.74C55.99 25.3 56.24 25.58 56.76 25.58C56.98 25.59 57.2 25.57 57.41 25.51C57.71 25.51 57.87 25.6 57.89 25.87L58.11 27.72C58.12 27.77 58.12 27.83 58.11 27.88C58.09 27.93 58.07 27.99 58.04 28.03C58 28.07 57.96 28.11 57.91 28.13C57.86 28.16 57.81 28.17 57.75 28.18C57.21 28.36 56.64 28.45 56.06 28.46Z" fill="#252525" fill-opacity="1.000000" fill-rule="nonzero"/>
	<path id="Vector" d="M70.07 26.87C68.82 27.91 67.25 28.47 65.62 28.47C64 28.47 62.43 27.91 61.18 26.87C60.08 25.76 59.46 24.26 59.46 22.7C59.46 21.14 60.08 19.64 61.18 18.53C62.43 17.5 64 16.94 65.62 16.94C67.25 16.94 68.82 17.5 70.07 18.53C71.14 19.65 71.74 21.14 71.74 22.69C71.74 24.25 71.14 25.74 70.07 26.86L70.07 26.87ZM63.52 24.92C64.1 25.44 64.86 25.73 65.64 25.73C66.42 25.73 67.18 25.44 67.76 24.92C68.28 24.31 68.57 23.54 68.57 22.74C68.57 21.94 68.28 21.16 67.76 20.56C67.18 20.03 66.42 19.74 65.64 19.74C64.86 19.74 64.1 20.03 63.52 20.56C62.99 21.16 62.7 21.94 62.7 22.74C62.7 23.54 62.99 24.31 63.52 24.92Z" fill="#252525" fill-opacity="1.000000" fill-rule="nonzero"/>
	<path id="Vector" d="M85.45 17.31C85.74 17.31 85.87 17.46 85.87 17.74L85.87 28.37C85.9 29.09 85.76 29.8 85.48 30.46C85.19 31.12 84.76 31.71 84.22 32.18C83.03 33.2 81.48 33.73 79.91 33.66C78.49 33.71 77.09 33.32 75.89 32.55C75.39 32.22 74.95 31.78 74.62 31.27C74.28 30.76 74.06 30.19 73.95 29.59C73.95 29.29 73.95 29.16 74.35 29.16L76.84 29.16C76.95 29.16 77.05 29.19 77.14 29.25C77.23 29.31 77.29 29.4 77.33 29.5C77.49 29.95 77.82 30.32 78.24 30.55C78.75 30.81 79.32 30.95 79.9 30.93C80.24 30.95 80.59 30.9 80.92 30.79C81.25 30.67 81.55 30.49 81.81 30.25C82.04 30.01 82.23 29.72 82.35 29.4C82.47 29.08 82.52 28.74 82.51 28.4L82.51 27.47C81.61 28.12 80.53 28.46 79.42 28.43C78.65 28.46 77.88 28.33 77.15 28.05C76.43 27.77 75.77 27.35 75.21 26.81C74.14 25.71 73.55 24.23 73.55 22.69C73.55 21.16 74.14 19.68 75.21 18.57C75.77 18.04 76.43 17.62 77.16 17.35C77.88 17.07 78.65 16.95 79.42 16.97C80.56 16.94 81.67 17.3 82.58 18L82.58 17.76C82.57 17.7 82.58 17.64 82.6 17.59C82.61 17.54 82.64 17.49 82.68 17.44C82.72 17.4 82.77 17.37 82.83 17.35C82.88 17.33 82.94 17.32 82.99 17.33L85.45 17.31ZM79.7 25.79C80.09 25.8 80.47 25.73 80.82 25.58C81.17 25.43 81.48 25.2 81.73 24.92C82.23 24.28 82.49 23.5 82.49 22.69C82.49 21.89 82.23 21.11 81.73 20.47C81.48 20.19 81.17 19.97 80.82 19.82C80.47 19.67 80.1 19.6 79.72 19.61C79.33 19.6 78.95 19.67 78.59 19.82C78.24 19.97 77.92 20.2 77.66 20.49C77.11 21.09 76.83 21.89 76.86 22.71C76.83 23.52 77.11 24.31 77.64 24.92C77.9 25.2 78.22 25.43 78.58 25.58C78.93 25.73 79.32 25.8 79.7 25.79Z" fill="#252525" fill-opacity="1.000000" fill-rule="nonzero"/>
	<path id="Vector" d="M98.66 26.87C97.41 27.9 95.84 28.46 94.21 28.46C92.59 28.46 91.02 27.9 89.77 26.87C88.69 25.75 88.09 24.26 88.09 22.7C88.09 21.15 88.69 19.65 89.77 18.53C91.02 17.5 92.59 16.94 94.21 16.94C95.83 16.94 97.41 17.5 98.66 18.53C99.73 19.65 100.34 21.14 100.34 22.69C100.34 24.25 99.73 25.74 98.66 26.86L98.66 26.87ZM92.09 24.92C92.38 25.19 92.71 25.4 93.08 25.54C93.45 25.68 93.84 25.74 94.23 25.73C94.62 25.74 95.01 25.68 95.37 25.54C95.73 25.39 96.07 25.18 96.35 24.92C96.87 24.31 97.15 23.54 97.15 22.74C97.15 21.94 96.87 21.17 96.35 20.56C96.07 20.29 95.73 20.08 95.37 19.94C95.01 19.8 94.62 19.73 94.23 19.74C93.84 19.73 93.45 19.8 93.08 19.94C92.71 20.08 92.38 20.29 92.09 20.56C91.58 21.17 91.29 21.94 91.29 22.74C91.29 23.54 91.58 24.31 92.09 24.92Z" fill="#252525" fill-opacity="1.000000" fill-rule="nonzero"/>
	<path id="Vector" d="M105.69 14.79C105.29 15.14 104.79 15.33 104.27 15.33C103.75 15.33 103.25 15.14 102.86 14.79C102.68 14.63 102.54 14.42 102.44 14.2C102.34 13.98 102.29 13.73 102.29 13.49C102.29 13.25 102.34 13 102.44 12.78C102.54 12.56 102.68 12.35 102.86 12.19C103.25 11.85 103.75 11.67 104.27 11.67C104.79 11.67 105.29 11.85 105.69 12.19C105.86 12.35 106.01 12.56 106.1 12.78C106.2 13 106.25 13.25 106.25 13.49C106.25 13.73 106.2 13.98 106.1 14.2C106.01 14.42 105.86 14.63 105.69 14.79ZM106 28.46C105.12 28.5 104.25 28.25 103.52 27.75C103.23 27.52 102.99 27.23 102.83 26.89C102.67 26.55 102.59 26.18 102.6 25.81L102.6 17.74C102.6 17.69 102.6 17.63 102.62 17.57C102.64 17.52 102.67 17.47 102.71 17.42C102.75 17.38 102.8 17.35 102.86 17.33C102.92 17.31 102.97 17.31 103.03 17.31L105.52 17.31C105.8 17.31 105.94 17.46 105.94 17.74L105.94 24.74C105.94 25.3 106.19 25.58 106.69 25.58C106.92 25.59 107.14 25.57 107.36 25.51C107.66 25.51 107.82 25.6 107.84 25.87L108.06 27.72C108.07 27.77 108.07 27.83 108.05 27.88C108.04 27.93 108.02 27.99 107.98 28.03C107.95 28.07 107.91 28.11 107.86 28.13C107.81 28.16 107.76 28.17 107.7 28.18C107.15 28.36 106.58 28.45 106 28.46Z" fill="#252525" fill-opacity="1.000000" fill-rule="nonzero"/>
	<path id="Vector" d="M117.22 16.96C117.99 16.93 118.77 17.05 119.5 17.33C120.23 17.6 120.89 18.02 121.46 18.56C122.5 19.68 123.09 21.16 123.09 22.7C123.09 24.24 122.5 25.72 121.46 26.84C120.9 27.39 120.23 27.81 119.5 28.09C118.77 28.36 118 28.49 117.22 28.46C116.11 28.48 115.02 28.15 114.12 27.5L114.12 32.85C114.12 33.13 113.97 33.26 113.69 33.26L111.2 33.26C111.14 33.27 111.08 33.27 111.03 33.25C110.97 33.23 110.92 33.2 110.88 33.16C110.84 33.12 110.81 33.07 110.79 33.02C110.78 32.96 110.77 32.9 110.78 32.85L110.78 20.69C110.8 20.57 110.79 20.45 110.75 20.34C110.72 20.22 110.65 20.12 110.57 20.04C110.48 19.95 110.38 19.89 110.26 19.85C110.15 19.81 110.03 19.8 109.91 19.82L109.42 19.82C109.09 19.82 108.93 19.7 108.93 19.46L108.93 17.71C108.92 17.61 108.95 17.5 109.02 17.41C109.08 17.32 109.17 17.25 109.27 17.22C109.79 17.04 110.33 16.95 110.87 16.96C111.42 16.91 111.96 17.03 112.44 17.29C112.92 17.55 113.31 17.95 113.56 18.44C114.03 17.96 114.6 17.58 115.23 17.32C115.86 17.07 116.54 16.94 117.22 16.96ZM114.9 24.92C115.17 25.19 115.49 25.41 115.84 25.56C116.19 25.71 116.57 25.79 116.95 25.79C117.33 25.79 117.71 25.71 118.06 25.56C118.41 25.41 118.73 25.19 119 24.92C119.55 24.3 119.84 23.48 119.81 22.65C119.85 21.82 119.56 21 119 20.38C118.73 20.11 118.41 19.89 118.06 19.74C117.71 19.59 117.33 19.51 116.95 19.51C116.57 19.51 116.19 19.59 115.84 19.74C115.49 19.89 115.17 20.11 114.9 20.38C114.37 21.01 114.08 21.82 114.12 22.65C114.09 23.48 114.37 24.29 114.9 24.92Z" fill="#252525" fill-opacity="1.000000" fill-rule="nonzero"/>
	<path id="Vector" d="M130.08 28.46C128.75 28.51 127.43 28.2 126.27 27.54C125.81 27.26 125.41 26.88 125.11 26.42C124.82 25.97 124.62 25.46 124.55 24.92C124.55 24.62 124.66 24.47 124.98 24.47L127.16 24.47C127.27 24.48 127.37 24.51 127.45 24.57C127.54 24.62 127.61 24.7 127.65 24.8C127.96 25.6 128.78 26 130.08 26C130.54 26.02 130.99 25.93 131.4 25.73C131.54 25.67 131.66 25.57 131.75 25.44C131.84 25.31 131.89 25.16 131.9 25.01C131.9 24.62 131.67 24.35 131.19 24.18C130.63 23.99 130.05 23.86 129.46 23.81C128.76 23.73 128.07 23.6 127.38 23.43C126.72 23.28 126.12 22.94 125.65 22.44C125.38 22.1 125.17 21.71 125.06 21.29C124.94 20.88 124.91 20.44 124.97 20.01C125.03 19.57 125.18 19.16 125.4 18.79C125.63 18.42 125.93 18.1 126.29 17.85C127.36 17.17 128.61 16.83 129.87 16.9C131.1 16.86 132.31 17.16 133.37 17.77C133.8 18.02 134.17 18.35 134.45 18.75C134.73 19.15 134.92 19.62 135 20.1C135 20.4 134.87 20.54 134.6 20.54L132.41 20.54C132.32 20.55 132.22 20.53 132.14 20.48C132.07 20.43 132 20.36 131.96 20.28C131.82 19.93 131.54 19.65 131.19 19.49C130.8 19.29 130.36 19.18 129.92 19.2C129.48 19.17 129.05 19.26 128.66 19.45C128.52 19.5 128.4 19.59 128.32 19.72C128.23 19.84 128.19 19.98 128.18 20.13C128.19 20.33 128.27 20.53 128.4 20.68C128.52 20.84 128.7 20.95 128.9 21C129.47 21.22 130.06 21.37 130.66 21.45C131.35 21.54 132.04 21.67 132.72 21.83C133.38 21.98 133.99 22.33 134.45 22.83C134.7 23.1 134.89 23.42 135.02 23.77C135.14 24.12 135.2 24.49 135.18 24.86C135.19 25.37 135.07 25.88 134.83 26.33C134.59 26.78 134.23 27.16 133.8 27.44C132.69 28.15 131.4 28.5 130.08 28.46Z" fill="#252525" fill-opacity="1.000000" fill-rule="nonzero"/>
	<path id="Vector" d="M150.85 27.72C150.86 27.77 150.85 27.82 150.84 27.88C150.83 27.93 150.8 27.98 150.77 28.02C150.74 28.06 150.7 28.1 150.66 28.13C150.61 28.15 150.56 28.17 150.5 28.18C149.96 28.35 149.4 28.45 148.83 28.46C148.27 28.52 147.7 28.43 147.18 28.2C146.66 27.98 146.21 27.62 145.87 27.17C144.82 28.07 143.47 28.53 142.09 28.46C141.45 28.49 140.81 28.38 140.21 28.15C139.61 27.92 139.07 27.56 138.62 27.11C138.17 26.63 137.82 26.07 137.6 25.46C137.37 24.85 137.27 24.19 137.3 23.54L137.3 17.74C137.3 17.46 137.43 17.31 137.71 17.31L140.2 17.31C140.49 17.31 140.62 17.46 140.62 17.74L140.62 23.09C140.59 23.76 140.82 24.41 141.26 24.92C141.47 25.15 141.74 25.33 142.03 25.45C142.33 25.57 142.64 25.63 142.96 25.61C143.29 25.63 143.61 25.58 143.92 25.47C144.22 25.35 144.5 25.18 144.74 24.96C144.97 24.73 145.14 24.45 145.25 24.15C145.37 23.85 145.42 23.52 145.41 23.2L145.41 17.74C145.41 17.46 145.54 17.31 145.82 17.31L148.34 17.31C148.62 17.31 148.76 17.46 148.76 17.74L148.76 24.72C148.76 25.3 149.01 25.58 149.5 25.58C149.73 25.59 149.96 25.57 150.18 25.51C150.24 25.49 150.3 25.49 150.35 25.5C150.41 25.51 150.46 25.53 150.51 25.57C150.56 25.6 150.6 25.65 150.62 25.7C150.65 25.75 150.67 25.81 150.67 25.87L150.85 27.72Z" fill="#252525" fill-opacity="1.000000" fill-rule="nonzero"/>
	<path id="Vector" d="M174.4 27.72C174.41 27.77 174.41 27.83 174.4 27.88C174.39 27.93 174.37 27.98 174.34 28.03C174.3 28.07 174.26 28.11 174.21 28.13C174.16 28.16 174.11 28.17 174.06 28.18C173.51 28.36 172.93 28.45 172.35 28.46C171.47 28.5 170.6 28.25 169.88 27.75C169.56 27.53 169.31 27.24 169.14 26.9C168.96 26.56 168.88 26.19 168.88 25.81L168.88 22.32C168.92 21.66 168.69 21.01 168.26 20.5C168.05 20.27 167.8 20.09 167.51 19.97C167.22 19.85 166.91 19.79 166.6 19.8C166.32 19.79 166.04 19.85 165.78 19.96C165.53 20.07 165.3 20.24 165.12 20.46C164.73 20.95 164.53 21.57 164.56 22.2L164.56 27.67C164.56 27.96 164.42 28.1 164.14 28.1L161.64 28.1C161.58 28.11 161.52 28.1 161.46 28.09C161.41 28.07 161.36 28.04 161.32 27.99C161.27 27.95 161.24 27.9 161.22 27.85C161.2 27.79 161.2 27.73 161.21 27.67L161.21 22.32C161.24 21.67 161.03 21.02 160.63 20.5C160.45 20.28 160.22 20.11 159.96 19.99C159.71 19.87 159.43 19.8 159.15 19.8C158.84 19.79 158.54 19.84 158.26 19.96C157.98 20.07 157.73 20.24 157.52 20.46C157.09 20.94 156.87 21.56 156.91 22.2L156.91 27.67C156.92 27.73 156.91 27.79 156.89 27.85C156.87 27.9 156.84 27.95 156.8 27.99C156.76 28.04 156.71 28.07 156.65 28.09C156.6 28.1 156.54 28.11 156.48 28.1L154.06 28.1C153.78 28.1 153.65 27.96 153.65 27.67L153.65 20.69C153.67 20.57 153.66 20.45 153.62 20.34C153.58 20.22 153.52 20.12 153.43 20.04C153.35 19.95 153.24 19.89 153.13 19.85C153.01 19.81 152.89 19.8 152.77 19.82L152.28 19.82C151.96 19.82 151.79 19.7 151.79 19.46L151.79 17.71C151.79 17.61 151.82 17.5 151.88 17.41C151.94 17.32 152.03 17.25 152.14 17.22C152.65 17.04 153.19 16.95 153.74 16.96C154.26 16.91 154.78 17.02 155.25 17.26C155.72 17.5 156.11 17.87 156.37 18.32C156.87 17.85 157.47 17.48 158.11 17.25C158.76 17.01 159.45 16.91 160.14 16.96C160.81 16.93 161.47 17.05 162.08 17.32C162.69 17.6 163.23 18.01 163.65 18.53C164.14 18 164.75 17.58 165.42 17.31C166.09 17.04 166.81 16.92 167.54 16.96C168.18 16.93 168.83 17.03 169.43 17.26C170.04 17.5 170.59 17.85 171.05 18.31C171.5 18.78 171.85 19.34 172.07 19.96C172.3 20.57 172.4 21.23 172.37 21.88L172.37 24.74C172.37 25.3 172.62 25.58 173.09 25.58C173.32 25.59 173.55 25.57 173.77 25.51C174.08 25.51 174.24 25.63 174.26 25.87L174.4 27.72Z" fill="#252525" fill-opacity="1.000000" fill-rule="nonzero"/>
	<path id="Vector" d="M0.6 15.39C1.7 10.99 4.23 7.09 7.8 4.3C11.37 1.51 15.76 0 20.29 0C24.82 0 29.22 1.51 32.79 4.3C36.36 7.09 38.89 10.99 39.98 15.39L38.2 15.39C35.2 15.34 32.27 16.24 29.8 17.95C29.66 18.05 29.51 18.15 29.36 18.23L29.15 18.23C28.99 18.15 28.85 18.05 28.7 17.95C26.22 16.28 23.29 15.39 20.29 15.39C17.3 15.39 14.37 16.28 11.88 17.95C11.74 18.05 11.59 18.15 11.44 18.23L11.23 18.23C11.08 18.15 10.93 18.05 10.78 17.95C8.32 16.24 5.38 15.34 2.38 15.39L0.6 15.39ZM35 24.68C35.92 23.97 37.05 23.6 38.2 23.63L40.59 23.63L40.59 18.87L38.2 18.87C36.17 18.84 34.18 19.48 32.53 20.68C31.6 21.36 30.48 21.73 29.33 21.73C28.17 21.73 27.05 21.36 26.12 20.68C24.44 19.5 22.43 18.87 20.37 18.87C18.31 18.87 16.3 19.5 14.61 20.68C13.68 21.36 12.56 21.73 11.41 21.73C10.26 21.73 9.13 21.36 8.21 20.68C6.54 19.46 4.52 18.83 2.46 18.87L0 18.87L0 23.63L2.38 23.63C3.54 23.6 4.67 23.97 5.58 24.68C7.27 25.86 9.28 26.49 11.33 26.49C13.39 26.49 15.4 25.86 17.08 24.68C18 23.97 19.13 23.6 20.29 23.63C21.44 23.59 22.57 23.97 23.49 24.68C25.18 25.86 27.19 26.49 29.24 26.49C31.3 26.49 33.31 25.86 35 24.68ZM35 33.19C35.92 32.48 37.05 32.1 38.2 32.13L40.59 32.13L40.59 27.38L38.2 27.38C36.17 27.35 34.18 27.99 32.53 29.18C31.6 29.87 30.48 30.24 29.33 30.24C28.17 30.24 27.05 29.87 26.12 29.18C24.44 28.01 22.43 27.38 20.37 27.38C18.31 27.38 16.3 28.01 14.61 29.18C13.68 29.87 12.56 30.24 11.41 30.24C10.26 30.24 9.13 29.87 8.21 29.18C6.54 27.97 4.52 27.34 2.46 27.38L0 27.38L0 32.13L2.38 32.13C3.54 32.1 4.67 32.48 5.58 33.19C7.27 34.36 9.28 35 11.33 35C13.39 35 15.4 34.36 17.08 33.19C18 32.48 19.13 32.11 20.29 32.13C21.44 32.1 22.57 32.47 23.49 33.19C25.18 34.36 27.19 34.99 29.24 34.99C31.3 34.99 33.31 34.36 35 33.19Z" fill="#252525" fill-opacity="1.000000" fill-rule="nonzero"/>
</svg>
