<svg width="149.982727" height="35.720215" viewBox="0 0 149.983 35.7202" fill="none" xmlns="http://www.w3.org/2000/svg" xmlns:xlink="http://www.w3.org/1999/xlink">
	<desc>
			Created with Pixso.
	</desc>
	<defs/>
	<path id="Vector" d="M19.55 0.03L19.53 0L10.59 0L0 18.15L7.27 30.88L7.27 30.86L10.02 35.62L31.05 35.72L38.43 23.06L38.38 23.06L41.11 18.33L30.68 0.08L19.55 0.03ZM26.47 12.14L26.52 12.14L21.27 3.01L28.95 3.05L37.68 18.33L34.94 23.06L27.78 23.06L30.28 18.74L26.47 12.14ZM17.73 2.97L21.31 9.17L16.35 9.17L7.86 23.9L7.28 24.9L3.43 18.17L12.3 2.97L17.73 2.97ZM14.28 18.71L18.07 12.14L23.03 12.14L26.85 18.74L24.35 23.06L16.8 23.07L14.28 18.71ZM8.99 27.88L10.43 25.39L12.57 21.69L15.09 26.04L22.63 26.04L22.62 26.06L33.23 26.07L29.34 32.73L11.74 32.66L8.99 27.88Z" fill="#252525" fill-opacity="1.000000" fill-rule="evenodd"/>
	<path id="Vector" d="M95.26 10.88C96.28 10.88 97.11 10.05 97.11 9.01C97.11 7.97 96.28 7.16 95.26 7.16C94.22 7.16 93.39 7.97 93.39 9.01C93.39 10.05 94.22 10.88 95.26 10.88ZM93.61 23.14L96.89 23.14L96.89 12.53L93.61 12.53L93.61 23.14Z" fill="#252525" fill-opacity="1.000000" fill-rule="nonzero"/>
	<path id="Vector" d="M98.81 28.23L102.03 28.23L102.03 22.08C102.65 22.88 104.05 23.43 105.51 23.43C108.67 23.43 110.58 21.02 110.5 17.66C110.41 14.25 108.44 12.19 105.49 12.19C103.98 12.19 102.56 12.85 101.97 13.82L101.8 12.53L98.81 12.53L98.81 28.23ZM102.1 17.83C102.1 16.24 103.16 15.18 104.68 15.18C106.23 15.18 107.21 16.26 107.21 17.83C107.21 19.4 106.23 20.49 104.68 20.49C103.16 20.49 102.1 19.42 102.1 17.83Z" fill="#252525" fill-opacity="1.000000" fill-rule="nonzero"/>
	<path id="Vector" d="M110.84 19.79C110.93 21.93 112.63 23.41 115.3 23.41C117.86 23.41 119.65 22.06 119.65 19.87C119.65 18.3 118.71 17.26 116.97 16.84L115.09 16.37C114.41 16.2 113.98 16.03 113.98 15.48C113.98 14.93 114.43 14.57 115.09 14.57C115.83 14.57 116.32 15.06 116.29 15.78L119.24 15.78C119.16 13.57 117.48 12.19 115.15 12.19C112.79 12.19 111.03 13.59 111.03 15.71C111.03 17.13 111.82 18.3 113.92 18.85L115.79 19.34C116.34 19.49 116.57 19.74 116.57 20.1C116.57 20.63 116.08 20.97 115.26 20.97C114.3 20.97 113.79 20.53 113.79 19.79L110.84 19.79Z" fill="#252525" fill-opacity="1.000000" fill-rule="nonzero"/>
	<path id="Vector" d="M124.65 23.41C125.94 23.41 127.23 22.82 127.89 21.95L128.1 23.14L131.18 23.14L131.18 12.53L127.91 12.53L127.91 18.05C127.91 19.64 127.45 20.51 125.94 20.51C124.77 20.51 124.01 19.98 124.01 18L124.01 12.53L120.74 12.53L120.74 19.19C120.74 21.72 122.14 23.41 124.65 23.41Z" fill="#252525" fill-opacity="1.000000" fill-rule="nonzero"/>
	<path id="Vector" d="M136.36 23.14L136.36 17.35C136.36 15.56 137.31 15.05 138.25 15.05C139.29 15.05 139.97 15.69 139.97 17.01L139.97 23.14L143.19 23.14L143.19 17.35C143.19 15.54 144.12 15.03 145.06 15.03C146.1 15.03 146.8 15.67 146.8 17.01L146.8 23.14L149.98 23.14L149.98 16.2C149.98 13.78 148.71 12.17 145.97 12.17C144.44 12.17 143.19 12.91 142.64 14.06C142 12.91 140.9 12.17 139.14 12.17C137.97 12.17 136.89 12.7 136.25 13.55L136.13 12.53L133.07 12.53L133.07 23.14L136.36 23.14Z" fill="#252525" fill-opacity="1.000000" fill-rule="nonzero"/>
	<path id="Vector" d="M50.46 7.44L46.98 7.44L46.98 23.14L56.61 23.14L56.61 20.06L50.46 20.06L50.46 7.44Z" fill="#252525" fill-opacity="1.000000" fill-rule="nonzero"/>
	<path id="Vector" d="M56.94 17.81C56.94 21.17 59.19 23.39 62.58 23.39C65.96 23.39 68.21 21.17 68.21 17.81C68.21 14.46 65.96 12.21 62.58 12.21C59.19 12.21 56.94 14.46 56.94 17.81ZM60.23 17.79C60.23 16.2 61.16 15.14 62.58 15.14C63.98 15.14 64.92 16.2 64.92 17.79C64.92 19.41 63.98 20.47 62.58 20.47C61.16 20.47 60.23 19.41 60.23 17.79Z" fill="#252525" fill-opacity="1.000000" fill-rule="nonzero"/>
	<path id="Vector" d="M68.73 17.64C68.73 20.85 70.81 23.01 73.76 23.01C75.18 23.01 76.41 22.5 77.02 21.67L77.02 23.14C77.02 24.6 76.11 25.58 74.5 25.58C73.06 25.58 72.06 24.9 72 23.69L68.69 23.69C68.99 26.6 71.23 28.55 74.31 28.55C77.94 28.55 80.23 26.19 80.23 22.46L80.23 12.53L77.28 12.53L77.11 13.61C76.52 12.74 75.26 12.17 73.82 12.17C70.85 12.17 68.73 14.4 68.73 17.64ZM72.04 17.56C72.04 16.03 73.06 15.01 74.35 15.01C75.86 15.01 76.96 16.01 76.96 17.56C76.96 19.11 75.88 20.17 74.37 20.17C73.08 20.17 72.04 19.11 72.04 17.56Z" fill="#252525" fill-opacity="1.000000" fill-rule="nonzero"/>
	<path id="Vector" d="M81.18 17.81C81.18 21.17 83.43 23.39 86.82 23.39C90.19 23.39 92.44 21.17 92.44 17.81C92.44 14.46 90.19 12.21 86.82 12.21C83.43 12.21 81.18 14.46 81.18 17.81ZM84.47 17.79C84.47 16.2 85.4 15.14 86.82 15.14C88.22 15.14 89.16 16.2 89.16 17.79C89.16 19.41 88.22 20.47 86.82 20.47C85.4 20.47 84.47 19.41 84.47 17.79Z" fill="#252525" fill-opacity="1.000000" fill-rule="nonzero"/>
</svg>
