<svg width="236.732178" height="25.830002" viewBox="0 0 236.732 25.83" fill="none" xmlns="http://www.w3.org/2000/svg" xmlns:xlink="http://www.w3.org/1999/xlink">
	<desc>
			Created with Pixso.
	</desc>
	<defs/>
	<path id="Dianne Studio" d="M23.44 3.15C23.44 4.86 24.88 6.3 26.59 6.3C28.31 6.3 29.74 4.86 29.74 3.15C29.74 1.43 28.31 -1.91e-6 26.59 -1.91e-6C24.88 -1.91e-6 23.44 1.43 23.44 3.15ZM123.53 24.35Q125.9 25.79 129.14 25.79C131.66 25.79 133.7 25.16 135.27 23.9C136.83 22.62 137.61 20.9 137.61 18.76C137.61 18.24 137.55 17.76 137.44 17.32C137.34 16.85 137.23 16.45 137.09 16.1C136.95 15.75 136.71 15.41 136.39 15.08C136.08 14.73 135.81 14.44 135.58 14.21C135.35 13.97 134.99 13.73 134.5 13.47C134.03 13.21 133.66 13.02 133.38 12.88C133.1 12.74 132.65 12.55 132.05 12.32C131.46 12.08 131.03 11.92 130.75 11.83Q130.33 11.69 129.32 11.37C127.43 10.76 126.1 10.18 125.33 9.62C124.56 9.06 124.17 8.24 124.17 7.17C124.17 6.05 124.58 5.16 125.4 4.51C126.21 3.86 127.29 3.53 128.62 3.53C131.28 3.53 133.13 4.79 134.18 7.31L136.91 5.74C136.19 4.13 135.1 2.83 133.66 1.85C132.23 0.87 130.55 0.38 128.62 0.38C126.47 0.38 124.65 1.01 123.16 2.27C121.66 3.51 120.92 5.19 120.92 7.31C120.92 8.2 121.07 8.99 121.37 9.69C121.7 10.39 122.06 10.96 122.46 11.41C122.85 11.83 123.45 12.25 124.24 12.67Q125.47 13.26 126.27 13.58C126.81 13.76 127.59 14.02 128.62 14.35C130.69 15 132.17 15.62 133.06 16.2C133.95 16.78 134.39 17.66 134.39 18.83C134.39 19.97 133.95 20.89 133.06 21.59C132.17 22.27 130.89 22.61 129.21 22.61C125.8 22.61 123.62 21.12 122.67 18.16L119.87 19.77C120.52 21.64 121.65 23.11 123.26 24.18Q123.39 24.27 123.53 24.35ZM224.02 25.79C227.57 25.79 230.57 24.55 233.02 22.08C235.49 19.61 236.73 16.61 236.73 13.09C236.73 9.54 235.49 6.54 233.02 4.09C230.57 1.62 227.57 0.38 224.02 0.38C220.48 0.38 217.48 1.62 215.03 4.09C212.58 6.54 211.35 9.54 211.35 13.09C211.35 16.61 212.58 19.61 215.03 22.08C217.48 24.55 220.48 25.79 224.02 25.79ZM21.69 13.09C21.69 6.16 16.55 0.83 9.79 0.83L-5.18e-5 0.83L-5.18e-5 25.34L9.79 25.34C16.55 25.34 21.69 20.02 21.69 13.09ZM155.56 3.92L155.56 0.83L137.88 0.83L137.88 3.92L145.09 3.92L145.09 25.34L148.31 25.34L148.31 3.92L155.56 3.92ZM166.97 25.79C169.67 25.79 171.88 25.01 173.58 23.45C175.29 21.86 176.14 19.75 176.14 17.11L176.14 0.83L172.92 0.83L172.92 16.97C172.92 18.7 172.4 20.07 171.38 21.1Q171.3 21.18 171.21 21.26Q169.68 22.61 166.97 22.61Q164.25 22.61 162.73 21.26Q162.64 21.18 162.56 21.1C161.53 20.07 161.02 18.7 161.02 16.97L161.02 0.83L157.76 0.83L157.76 17.11Q157.76 19.84 158.98 21.83Q159.53 22.71 160.32 23.45C162.04 25.01 164.26 25.79 166.97 25.79ZM194.93 1.9Q192.71 0.83 189.97 0.83L180.41 0.83L180.41 25.34L189.97 25.34Q192.75 25.34 195.01 24.24Q196.8 23.37 198.26 21.8C200.48 19.42 201.59 16.52 201.59 13.09C201.59 9.66 200.48 6.76 198.26 4.41Q196.78 2.79 194.93 1.9ZM208.09 0.83L204.84 0.83L204.84 25.34L208.09 25.34L208.09 0.83ZM224.02 22.61C221.34 22.61 219.09 21.7 217.27 19.87Q216.12 18.69 215.46 17.28Q214.57 15.39 214.57 13.09Q214.57 10.66 215.54 8.71Q216.18 7.39 217.27 6.3C219.09 4.45 221.34 3.53 224.02 3.53C226.71 3.53 228.95 4.45 230.74 6.3C232.56 8.12 233.47 10.38 233.47 13.09C233.47 15.77 232.56 18.03 230.74 19.87C228.95 21.7 226.71 22.61 224.02 22.61ZM196.09 19.63C194.51 21.38 192.47 22.26 189.97 22.26L183.67 22.26L183.67 3.92L189.97 3.92C192.47 3.92 194.51 4.79 196.09 6.54C197.68 8.29 198.47 10.47 198.47 13.09C198.47 15.7 197.68 17.88 196.09 19.63ZM16.3 13.09C16.3 17.29 13.64 19.95 9.79 19.95L5.59 19.95L5.59 6.23L9.79 6.23C13.64 6.23 16.3 8.89 16.3 13.09ZM50.32 7.84L45.07 7.84L45.07 9.48C43.91 8.15 42.2 7.35 39.85 7.35C35.27 7.35 31.49 11.37 31.49 16.59C31.49 21.8 35.27 25.83 39.85 25.83C42.2 25.83 43.91 25.02 45.07 23.69L45.07 25.34L50.32 25.34L50.32 7.84ZM70.27 14.59C70.27 9.87 67.26 7.35 63.72 7.35C61.41 7.35 59.66 8.18 58.72 9.48L58.72 7.84L53.47 7.84L53.47 25.34L58.72 25.34L58.72 15.78C58.72 13.3 60.05 12.18 61.97 12.18C63.65 12.18 65.02 13.19 65.02 15.36L65.02 25.34L70.27 25.34L70.27 14.59ZM89.97 14.59C89.97 9.87 86.96 7.35 83.43 7.35C81.12 7.35 79.37 8.18 78.42 9.48L78.42 7.84L73.17 7.84L73.17 25.34L78.42 25.34L78.42 15.78C78.42 13.3 79.75 12.18 81.68 12.18C83.36 12.18 84.72 13.19 84.72 15.36L84.72 25.34L89.97 25.34L89.97 14.59ZM101.77 21.14C99.84 21.14 98.23 20.51 97.57 18.69L109.99 18.69C110.13 18.02 110.2 17.32 110.2 16.59C110.2 11.3 106.42 7.35 101.31 7.35C95.78 7.35 92 11.37 92 16.59C92 21.8 95.71 25.83 101.7 25.83C105.02 25.83 107.61 24.6 109.33 22.22L105.13 19.81C104.43 20.58 103.2 21.14 101.77 21.14ZM23.97 7.84L23.97 25.34L29.22 25.34L29.22 7.84L23.97 7.84ZM104.99 14.77L97.46 14.77C97.95 12.98 99.28 12 101.28 12C102.85 12 104.43 12.74 104.99 14.77ZM45.07 16.59C45.07 19.21 43.32 20.86 40.9 20.86C38.49 20.86 36.74 19.21 36.74 16.59C36.74 13.96 38.49 12.32 40.9 12.32C43.32 12.32 45.07 13.96 45.07 16.59Z" fill="#000000" fill-opacity="1.000000" fill-rule="evenodd"/>
</svg>
